# xmcd CD database file
# Copyright (C) 1993-1998 Ti Kan
#
# Track frame offsets:
#	182
#	20975
#	41117
#	60335
#	82830
#	98150
#	120065
#	139755
#	153915
#	170055
#
# Disc length: 2489 seconds
#
# Revision: 2
# Processed by: cddbd v1.4b41PL1 Copyright (c) Steve Scherf et al.
# Submitted via: CDValet v3.31 - Copyright (c) 1997 Greg Leichner
#
DISCID=7609b70a
DTITLE=Alcione - Série colecionador - Alcione - Dez Anos Depois
DYEAR=1900
DGENRE=
TTITLE0=Sufoco - Lá Vem Você - Menino Sem Juízo
TTITLE1=O Surdo - Pandeiro É Meu Nome - Não Deixe O Samba Morre
TTITLE1=r
TTITLE2=Quero Sim - Meu Dia de Graça - Primeira Escola
TTITLE3=Pode Esperar - Recusa - Faca de Ponta - Pra Você Não Me
TTITLE3=Esquecer
TTITLE4=Cajueiro Velho - Etelvina Minha Nega - Todos Cantam Sua
TTITLE4=Terra
TTITLE5=Pra Que Chorar - Não Chore Não - Acorda Que Eu Quero Ve
TTITLE5=r
TTITLE6=Rio Antigo (Como Nos Velhos Tempos) - Amantes da Noite
TTITLE7=Pedra que Não Cria Limo - Gostoso Veneno - E Vamos À Lu
TTITLE7=ta
TTITLE8=Aruandê - Ilha de Maré - Lua Menina
TTITLE9=Tm Dendê - Figa de Guiné
EXTD=
EXTT0=
EXTT1=
EXTT2=
EXTT3=
EXTT4=
EXTT5=
EXTT6=
EXTT7=
EXTT8=
EXTT9=
PLAYORDER=
